<svg xmlns="http://www.w3.org/2000/svg" viewBox="0 0 150 42" role="img" aria-labelledby="title">
  <title id="title">American Express</title>
  <rect x="1" y="4" width="148" height="34" rx="2" fill="#1477C9"/>
  <path fill="#FFFFFF" d="M11.8 14.2h7.1l1.6 3.4 1.6-3.4h7v13.6h-5.2v-8.1l-3.4 8.1h-1.9l-3.4-8.1v8.1h-3.4l-1.2-3H7.9l-1.2 3H1.3l5.9-13.6h4.6Zm-2.9 7.2h2.4l-1.2-3.2-1.2 3.2Zm21.8-7.2h12v3.1h-6.9v2.1h6.7v3h-6.7v2.2h6.9v3.2h-12V14.2Zm13.6 0h6.1l2.7 4.4 2.8-4.4h5.9l-5.7 6.7 5.9 6.9h-6.1l-2.9-4.6-2.9 4.6h-5.9l5.9-6.9-5.8-6.7Zm19.2 0h8c3.4 0 5.5 1.8 5.5 4.8s-2.1 4.8-5.5 4.8h-2.9v4h-5.1V14.2Zm7.3 6.3c.9 0 1.4-.5 1.4-1.5s-.5-1.5-1.4-1.5h-2.2v3h2.2Zm7.8-6.3h8.5c3.2 0 5.1 1.5 5.1 4.1 0 1.7-.9 3-2.5 3.6l3.2 5.9h-5.8l-2.6-5h-.9v5h-5V14.2Zm7.6 5.7c.8 0 1.3-.4 1.3-1.2s-.5-1.2-1.3-1.2h-2.6v2.4h2.6Zm8.1-5.7h12v3.1h-6.9v2.1h6.7v3h-6.7v2.2h6.9v3.2h-12V14.2Zm13.5 9.2h4.9c0 1 .7 1.5 2.2 1.5 1.2 0 1.9-.4 1.9-1.1 0-.8-.8-1-2.8-1.4-3.3-.6-6-1.3-6-4.3 0-2.7 2.5-4.3 6.7-4.3 4.3 0 6.8 1.7 6.9 4.7h-4.9c-.1-.9-.7-1.3-2-1.3-1.1 0-1.7.3-1.7 1 0 .7.9.9 2.7 1.2 3.6.6 6.2 1.4 6.2 4.5 0 2.9-2.6 4.5-7.1 4.5-4.4 0-7-1.9-7-5.4Zm15.1 0h4.9c0 1 .7 1.5 2.2 1.5 1.2 0 1.9-.4 1.9-1.1 0-.8-.8-1-2.8-1.4-3.3-.6-6-1.3-6-4.3 0-2.7 2.5-4.3 6.7-4.3 4.3 0 6.8 1.7 6.9 4.7h-4.9c-.1-.9-.7-1.3-2-1.3-1.1 0-1.7.3-1.7 1 0 .7.9.9 2.7 1.2 3.6.6 6.2 1.4 6.2 4.5 0 2.9-2.6 4.5-7.1 4.5-4.4 0-7-1.9-7-5.4Z"/>
</svg>
