<svg xmlns="http://www.w3.org/2000/svg" viewBox="0 0 116 42" role="img" aria-labelledby="title">
  <title id="title">UPI</title>
  <rect width="116" height="42" fill="none"/>
  <path fill="#6D6E71" d="M8.5 10.5h8.1l-4 20.9H4.5l4-20.9Zm17.1 0h8.7c6.1 0 9.1 2.8 8.1 8.2-.9 5.2-5.1 8.4-11.2 8.4h-2.4l-.8 4.3h-8.1l5.7-20.9Zm5.5 10.6c1.9 0 3.1-.9 3.4-2.6.3-1.6-.5-2.4-2.4-2.4h-.8l-1.2 5h1Zm17.8-10.6H57l-4 20.9h-8.1l4-20.9Zm15.1 0h30.1l-1.1 5.9H62.9l1.1-5.9Zm-1.8 9.1h27.7l-1.1 5.8H61.1l1.1-5.8Zm-1.9 9.2h25.4l-1.1 5.8H59.2l1.1-5.8Z"/>
  <path fill="#F58220" d="M93.8 8.2 108.4 21 88.9 33.8l4.9-25.6Z"/>
  <path fill="#0B8F43" d="m100.3 8.2 14.6 12.8-19.5 12.8 4.9-25.6Z"/>
</svg>
