<svg xmlns="http://www.w3.org/2000/svg" viewBox="0 0 128 42" role="img" aria-labelledby="title">
  <title id="title">Visa</title>
  <rect width="128" height="42" rx="0" fill="none"/>
  <path fill="#243A8F" d="M51.6 31.4h-9.1l5.7-20.8h9.1l-5.7 20.8Zm31.3-20.3a23.3 23.3 0 0 0-8.1-1.4c-8.9 0-15.1 4.4-15.2 10.8-.1 4.7 4.5 7.4 7.9 8.9 3.5 1.6 4.7 2.6 4.7 4 0 2.1-2.8 3.1-5.3 3.1-3.5 0-5.4-.5-8.3-1.7l-1.1-.5-1.2 7.1c2.1.9 6 1.7 10.1 1.7 9.4 0 15.5-4.3 15.6-11 .1-3.8-2.4-6.6-7.5-8.9-3.1-1.5-5-2.4-5-3.9 0-1.3 1.6-2.7 5-2.7 2.9 0 5 .6 6.6 1.2l.8.4 1-7.1Zm23.4-.5h-7c-2.2 0-3.8.6-4.7 2.8L81.2 31.4h9.5l1.9-4.9h11.6l1.1 4.9h8.4l-7.4-20.8Zm-11.1 10.2c.7-1.9 3.6-9.2 3.6-9.2s.7 1.9 1.2 3.1l2.1 6.1h-6.9ZM34.9 10.6 26 24.8l-.9-4.3c-1.7-5.3-6.9-11-12.7-13.9l8.1 24.7h9.5l14.3-20.8h-9.4Z"/>
  <path fill="#F6A500" d="M17.7 10.6H3l-.1.7c11.5 2.7 19.1 9.2 22.2 17.1l-3.2-15c-.5-2.1-2.1-2.7-4.2-2.8Z"/>
</svg>
